<mxfile host="app.diagrams.net" modified="2023-04-11T12:24:26.940Z" agent="Mozilla/5.0 (Windows NT 10.0; Win64; x64) AppleWebKit/537.36 (KHTML, like Gecko) Chrome/111.0.0.0 Safari/537.36" etag="cysKNyGDGyiWdb42LlTX" version="21.1.2" type="device">
  <diagram name="Página-1" id="KzZU-_uhdFJ1xb3SYIPW">
    <mxGraphModel dx="983" dy="384" grid="1" gridSize="10" guides="1" tooltips="1" connect="1" arrows="1" fold="1" page="1" pageScale="1" pageWidth="827" pageHeight="1169" math="0" shadow="0">
      <root>
        <mxCell id="0" />
        <mxCell id="1" parent="0" />
        <mxCell id="Sjo-AfvP_aEywahF5nbO-1" value="Usuario" style="shape=umlActor;verticalLabelPosition=bottom;verticalAlign=top;html=1;outlineConnect=0;" vertex="1" parent="1">
          <mxGeometry x="130" y="150" width="60" height="130" as="geometry" />
        </mxCell>
        <mxCell id="Sjo-AfvP_aEywahF5nbO-3" value="CU03:Añadir producto a carrito" style="ellipse;whiteSpace=wrap;html=1;" vertex="1" parent="1">
          <mxGeometry x="262.5" y="200" width="105" height="70" as="geometry" />
        </mxCell>
        <mxCell id="Sjo-AfvP_aEywahF5nbO-4" value="CU02:Añadir productos favoritos" style="ellipse;whiteSpace=wrap;html=1;" vertex="1" parent="1">
          <mxGeometry x="260" y="120" width="110" height="70" as="geometry" />
        </mxCell>
        <mxCell id="Sjo-AfvP_aEywahF5nbO-5" value="CU04: Realizar pedido" style="ellipse;whiteSpace=wrap;html=1;" vertex="1" parent="1">
          <mxGeometry x="262.5" y="290" width="110" height="60" as="geometry" />
        </mxCell>
        <mxCell id="Sjo-AfvP_aEywahF5nbO-6" value="CU01: Login" style="ellipse;whiteSpace=wrap;html=1;" vertex="1" parent="1">
          <mxGeometry x="267.5" y="50" width="105" height="60" as="geometry" />
        </mxCell>
        <mxCell id="Sjo-AfvP_aEywahF5nbO-13" value="" style="endArrow=none;html=1;rounded=0;entryX=0.076;entryY=0.801;entryDx=0;entryDy=0;entryPerimeter=0;" edge="1" parent="1" target="Sjo-AfvP_aEywahF5nbO-6">
          <mxGeometry width="50" height="50" relative="1" as="geometry">
            <mxPoint x="180" y="220" as="sourcePoint" />
            <mxPoint x="220" y="80" as="targetPoint" />
          </mxGeometry>
        </mxCell>
        <mxCell id="Sjo-AfvP_aEywahF5nbO-14" value="" style="endArrow=none;html=1;rounded=0;entryX=0;entryY=0.5;entryDx=0;entryDy=0;" edge="1" parent="1" target="Sjo-AfvP_aEywahF5nbO-4">
          <mxGeometry width="50" height="50" relative="1" as="geometry">
            <mxPoint x="180" y="220" as="sourcePoint" />
            <mxPoint x="220" y="140" as="targetPoint" />
          </mxGeometry>
        </mxCell>
        <mxCell id="Sjo-AfvP_aEywahF5nbO-15" value="" style="endArrow=none;html=1;rounded=0;" edge="1" parent="1" target="Sjo-AfvP_aEywahF5nbO-3">
          <mxGeometry width="50" height="50" relative="1" as="geometry">
            <mxPoint x="180" y="220" as="sourcePoint" />
            <mxPoint x="220" y="260" as="targetPoint" />
          </mxGeometry>
        </mxCell>
        <mxCell id="Sjo-AfvP_aEywahF5nbO-16" value="" style="endArrow=none;html=1;rounded=0;entryX=0;entryY=0.5;entryDx=0;entryDy=0;" edge="1" parent="1" target="Sjo-AfvP_aEywahF5nbO-5">
          <mxGeometry width="50" height="50" relative="1" as="geometry">
            <mxPoint x="180" y="220" as="sourcePoint" />
            <mxPoint x="210" y="280" as="targetPoint" />
          </mxGeometry>
        </mxCell>
        <mxCell id="Sjo-AfvP_aEywahF5nbO-19" value="CU05: Logout" style="ellipse;whiteSpace=wrap;html=1;" vertex="1" parent="1">
          <mxGeometry x="267.5" y="370" width="100" height="60" as="geometry" />
        </mxCell>
        <mxCell id="Sjo-AfvP_aEywahF5nbO-21" value="" style="endArrow=none;html=1;rounded=0;exitX=0;exitY=0.286;exitDx=0;exitDy=0;exitPerimeter=0;" edge="1" parent="1" source="Sjo-AfvP_aEywahF5nbO-19">
          <mxGeometry width="50" height="50" relative="1" as="geometry">
            <mxPoint x="220" y="420" as="sourcePoint" />
            <mxPoint x="180" y="220" as="targetPoint" />
          </mxGeometry>
        </mxCell>
        <mxCell id="Sjo-AfvP_aEywahF5nbO-22" value="Administrador" style="shape=umlActor;verticalLabelPosition=bottom;verticalAlign=top;html=1;outlineConnect=0;" vertex="1" parent="1">
          <mxGeometry x="460" y="100" width="60" height="130" as="geometry" />
        </mxCell>
        <mxCell id="Sjo-AfvP_aEywahF5nbO-25" value="CU06: Acceder al dashboard" style="ellipse;whiteSpace=wrap;html=1;" vertex="1" parent="1">
          <mxGeometry x="570" y="80" width="100" height="70" as="geometry" />
        </mxCell>
        <mxCell id="Sjo-AfvP_aEywahF5nbO-27" value="" style="endArrow=none;html=1;rounded=0;" edge="1" parent="1">
          <mxGeometry width="50" height="50" relative="1" as="geometry">
            <mxPoint x="520" y="170" as="sourcePoint" />
            <mxPoint x="570" y="120" as="targetPoint" />
          </mxGeometry>
        </mxCell>
        <mxCell id="Sjo-AfvP_aEywahF5nbO-29" value="CU07: Login" style="ellipse;whiteSpace=wrap;html=1;" vertex="1" parent="1">
          <mxGeometry x="560" y="160" width="105" height="60" as="geometry" />
        </mxCell>
        <mxCell id="Sjo-AfvP_aEywahF5nbO-30" value="CU08: Logout" style="ellipse;whiteSpace=wrap;html=1;" vertex="1" parent="1">
          <mxGeometry x="570" y="250" width="100" height="60" as="geometry" />
        </mxCell>
        <mxCell id="Sjo-AfvP_aEywahF5nbO-31" value="" style="endArrow=none;html=1;rounded=0;" edge="1" parent="1">
          <mxGeometry width="50" height="50" relative="1" as="geometry">
            <mxPoint x="520" y="170" as="sourcePoint" />
            <mxPoint x="560" y="190" as="targetPoint" />
          </mxGeometry>
        </mxCell>
        <mxCell id="Sjo-AfvP_aEywahF5nbO-32" value="" style="endArrow=none;html=1;rounded=0;entryX=0;entryY=0.5;entryDx=0;entryDy=0;" edge="1" parent="1" target="Sjo-AfvP_aEywahF5nbO-30">
          <mxGeometry width="50" height="50" relative="1" as="geometry">
            <mxPoint x="520" y="170" as="sourcePoint" />
            <mxPoint x="570" y="200" as="targetPoint" />
          </mxGeometry>
        </mxCell>
      </root>
    </mxGraphModel>
  </diagram>
</mxfile>
